<?xml version="1.0" encoding="UTF-8"?>
<!DOCTYPE svg PUBLIC "-//W3C//DTD SVG 1.1//EN" "http://www.w3.org/Graphics/SVG/1.1/DTD/svg11.dtd">
<svg xmlns="http://www.w3.org/2000/svg" xmlns:xlink="http://www.w3.org/1999/xlink" version="1.1" width="155px" height="145px" viewBox="-0.5 -0.5 155 145"><defs/><g><path d="M 86 132 L 134.93 79.07" fill="none" stroke="#6699cc" stroke-width="3" stroke-miterlimit="10" pointer-events="stroke"/><path d="M 86.26 89.5 L 131.76 73.76" fill="none" stroke="#6666cc" stroke-width="3" stroke-miterlimit="10" pointer-events="stroke"/><path d="M 86 52 L 132.26 67" fill="none" stroke="#006699" stroke-width="3" stroke-miterlimit="10" pointer-events="stroke"/><path d="M 85.26 10 L 137.5 62.26" fill="none" stroke="#ffc300" stroke-width="3" stroke-miterlimit="10" pointer-events="stroke"/><path d="M 21.76 25.76 L 66 12" fill="none" stroke="#006699" stroke-width="3" stroke-miterlimit="10" pointer-events="stroke"/><path d="M 22 32 L 76 52" fill="none" stroke="#6699cc" stroke-width="3" stroke-miterlimit="10" pointer-events="stroke"/><path d="M 21.5 36.5 L 68.93 84.93" fill="none" stroke="#6666cc" stroke-width="3" stroke-miterlimit="10" pointer-events="stroke"/><path d="M 18.26 82.5 L 68.93 19.07" fill="none" stroke="#ffc300" stroke-width="3" stroke-miterlimit="10" pointer-events="stroke"/><path d="M 22 87.5 L 64.76 55.76" fill="none" stroke="#006699" stroke-width="3" stroke-miterlimit="10" pointer-events="stroke"/><path d="M 23.76 95 L 64.5 90.26" fill="none" stroke="#6699cc" stroke-width="3" stroke-miterlimit="10" pointer-events="stroke"/><path d="M 19.07 99.07 L 67 125" fill="none" stroke="#6666cc" stroke-width="3" stroke-miterlimit="10" pointer-events="stroke"/><ellipse cx="76" cy="132" rx="10" ry="10" fill="#ffc300" stroke="#ffc300" stroke-width="5" pointer-events="all"/><ellipse cx="76" cy="52" rx="10" ry="10" fill="#6699cc" stroke="#6699cc" stroke-width="5" pointer-events="all"/><ellipse cx="76" cy="92" rx="10" ry="10" fill="#006699" stroke="#006699" stroke-width="5" pointer-events="all"/><ellipse cx="76" cy="12" rx="10" ry="10" fill="#6666cc" stroke="#6666cc" stroke-width="5" pointer-events="all"/><ellipse cx="12" cy="92" rx="10" ry="10" fill="#6699cc" stroke="#6699cc" stroke-width="5" pointer-events="all"/><ellipse cx="12" cy="32" rx="10" ry="10" fill="#ffc300" stroke="#ffc300" stroke-width="5" pointer-events="all"/><ellipse cx="142" cy="72" rx="10" ry="10" fill="#006699" stroke="#006699" stroke-width="5" pointer-events="all"/><path d="M 16.5 42.26 L 71 123" fill="none" stroke="#ffc300" stroke-width="3" stroke-miterlimit="10" pointer-events="stroke"/></g></svg>